<?xml version="1.0" standalone="no"?>
<!DOCTYPE svg PUBLIC "-//W3C//DTD SVG 20010904//EN"
 "http://www.w3.org/TR/2001/REC-SVG-20010904/DTD/svg10.dtd">
<svg version="1.0" xmlns="http://www.w3.org/2000/svg"
 width="1280.000000pt" height="1280.000000pt" viewBox="0 0 1280.000000 1280.000000"
 preserveAspectRatio="xMidYMid meet">
<metadata>
Created by potrace 1.11, written by Peter Selinger 2001-2013
</metadata>
<g transform="translate(0.000000,1280.000000) scale(0.100000,-0.100000)"
fill="#000000" stroke="none">
<path d="M5870 10999 l-525 -1279 -1155 0 -1156 0 -252 -425 c-139 -233 -252
-427 -252 -430 0 -3 851 -5 1890 -5 l1890 0 0 58 c0 31 14 577 30 1212 41
1539 56 2145 56 2147 -1 1 -237 -574 -526 -1278z"/>
<path d="M6415 12245 c2 -22 7 -170 10 -330 3 -159 21 -884 40 -1610 19 -726
35 -1348 35 -1382 l0 -63 1890 0 c1040 0 1890 3 1890 6 0 3 -113 197 -252 430
l-252 424 -1156 0 -1155 0 -495 1207 c-603 1469 -561 1369 -555 1318z"/>
<path d="M3752 8583 c-14 -58 -94 -364 -117 -448 -9 -33 -25 -91 -35 -130 -10
-38 -25 -95 -33 -125 -23 -82 -52 -193 -82 -305 -14 -55 -34 -129 -44 -165
-10 -36 -28 -101 -40 -145 -11 -44 -36 -136 -55 -205 -18 -69 -51 -188 -71
-265 -21 -77 -52 -194 -70 -260 -18 -66 -45 -167 -60 -225 -15 -58 -49 -184
-75 -280 -26 -96 -67 -247 -90 -335 -23 -88 -66 -248 -95 -355 -29 -107 -85
-316 -125 -465 -39 -148 -78 -290 -85 -315 -17 -62 -33 -120 -125 -465 -80
-299 -100 -375 -126 -470 -8 -27 -52 -192 -99 -365 -46 -173 -175 -652 -285
-1065 -111 -412 -210 -783 -221 -823 -24 -92 -54 -202 -73 -272 -70 -257 -156
-583 -156 -591 0 -5 1899 -9 4821 -9 4588 0 4821 1 4814 17 -3 10 -55 200
-115 423 -60 223 -118 441 -130 485 -12 44 -28 103 -35 130 -226 845 -378
1412 -390 1455 -8 30 -74 273 -145 540 -229 857 -310 1160 -370 1380 -117 437
-283 1056 -395 1475 -43 160 -93 346 -111 415 -19 69 -43 159 -54 200 -11 41
-31 116 -44 165 -24 86 -52 193 -81 300 -65 245 -297 1114 -301 1128 -5 16
-140 17 -2648 17 l-2643 0 -11 -47z"/>
</g>
</svg>
